# xmcd
#
# Track frame offsets: 
#        150
#        22255
#        41157
#        58116
#        81194
#        104929
#        124756
#        143501
#        167489
#        191012
#
# Disc length: 2849 seconds
#
# Revision: 0
# Processed by: cddbd v1.5.2PL0 Copyright (c) Steve Scherf et al.
# Submitted via: ExactAudioCopy v1.0b3
#
DISCID=900b1f0a
DTITLE=Truong Vu, Hong Truc - Hinh Anh Nguoi Em Khong Doi
DYEAR=2000
DGENRE=
TTITLE0=Hong Truc - Biet anh con yeu em khong
TTITLE1=Truong Vu - Van doi nguoi di
TTITLE2=Hong Truc - Hinh anh nguoi em khong doi
TTITLE3=Truong Vu - Doan cuoi dem mua
TTITLE4=Hong Truc - Mua dem tinh nho
TTITLE5=Truong Vu - Giot sau trinh nu
TTITLE6=Hong Truc - Thanh pho sau lung
TTITLE7=Truong Vu - Yeu trong nghich canh
TTITLE8=Hong Truc - Neu ta dung quen nhau
TTITLE9=Lam Gia Minh - Em sap ve chua
EXTD=
EXTT0=
EXTT1=
EXTT2=
EXTT3=
EXTT4=
EXTT5=
EXTT6=
EXTT7=
EXTT8=
EXTT9=
PLAYORDER=
